<svg width="28" height="1" viewBox="0 0 28 1" fill="none" xmlns="http://www.w3.org/2000/svg">
<path d="M22.4 0.0472821C23.1426 0.0472821 23.8548 0.0474323 24.3799 0.0476996C24.905 0.047967 25.2 0.0483295 25.2 0.0487076C25.2 0.0490857 24.905 0.0494483 24.3799 0.0497156C23.8548 0.0499829 23.1426 0.0501331 22.4 0.0501331C21.6574 0.0501331 20.9452 0.0499829 20.4201 0.0497156C19.895 0.0494483 19.6 0.0490857 19.6 0.0487076C19.6 0.0479165 20.846 0.0472821 22.4 0.0472821ZM0 0.0358781H4.578L5.894 0.0373036H26.6C26.9713 0.0373036 27.3274 0.0373787 27.59 0.0375124C27.8525 0.037646 28 0.0378273 28 0.0380164C28 0.0381375 27.93 0.0382587 27.832 0.0383727L22.82 0.0429842C22.344 0.043419 21.42 0.0437184 20.37 0.0437184H9.94L8.68 0.0448801L8.638 0.0449657C8.638 0.0450129 8.67487 0.0450583 8.74051 0.0450917C8.80615 0.0451251 8.89517 0.0451439 8.988 0.0451439H25.2V0.0465694H8.4C7.65739 0.0465694 6.9452 0.0464192 6.4201 0.0461518C5.895 0.0458845 5.6 0.0455219 5.6 0.0451439C5.6 0.0448944 5.726 0.0446592 5.936 0.0444596L7.84 0.0427134L2.8 0.0373036H0V0.0358781ZM8.4 0.0472821C9.14261 0.0472821 9.8548 0.0474323 10.3799 0.0476996C10.905 0.047967 11.2 0.0483295 11.2 0.0487076C11.2 0.0490857 10.905 0.0494483 10.3799 0.0497156C9.8548 0.0499829 9.14261 0.0501331 8.4 0.0501331C7.65739 0.0501331 6.9452 0.0499829 6.4201 0.0497156C5.895 0.0494483 5.6 0.0490857 5.6 0.0487076C5.6 0.0479165 6.846 0.0472821 8.4 0.0472821ZM21 0.0422929L24.892 0.0387291H7.196L10.5 0.0422929H21Z" fill="white"/>
</svg>
