<svg width="65" height="65" viewBox="0 0 65 65" fill="none" xmlns="http://www.w3.org/2000/svg">
<g clip-path="url(#clip0_23_215)">
<path d="M65 32.5C65 14.5509 50.4491 0 32.5 0C14.5509 0 0 14.5506 0 32.5C0 48.7216 11.8848 62.1672 27.4219 64.6052V41.8945H19.1699V32.5H27.4219V25.3398C27.4219 17.1945 32.274 12.6953 39.6975 12.6953C43.2534 12.6953 46.9727 13.3301 46.9727 13.3301V21.3281H42.8746C38.837 21.3281 37.5781 23.8334 37.5781 26.4037V32.5H46.5918L45.1509 41.8945H37.5781V64.6052C53.1152 62.1672 65 48.7218 65 32.5Z" fill="#1877F2"/>
<path d="M45.1509 41.8945L46.5918 32.5H37.5781V26.4037C37.5781 23.8332 38.8372 21.3281 42.8746 21.3281H46.9727V13.3301C46.9727 13.3301 43.2534 12.6953 39.6975 12.6953C32.274 12.6953 27.4219 17.1945 27.4219 25.3398V32.5H19.1699V41.8945H27.4219V64.6052C29.1018 64.8684 30.7996 65.0004 32.5 65C34.2004 65.0005 35.8982 64.8685 37.5781 64.6052V41.8945H45.1509Z" fill="white"/>
</g>
<defs>
<clipPath id="clip0_23_215">
<rect width="65" height="65" fill="white"/>
</clipPath>
</defs>
</svg>
