<svg width="65" height="65" viewBox="0 0 65 65" fill="none" xmlns="http://www.w3.org/2000/svg">
<g clip-path="url(#clip0_23_218)">
<path d="M49.7656 0H15.2344C6.82066 0 0 6.82066 0 15.2344V49.7656C0 58.1793 6.82066 65 15.2344 65H49.7656C58.1793 65 65 58.1793 65 49.7656V15.2344C65 6.82066 58.1793 0 49.7656 0Z" fill="white"/>
<path d="M49.7656 0H15.2344C6.82066 0 0 6.82066 0 15.2344V49.7656C0 58.1793 6.82066 65 15.2344 65H49.7656C58.1793 65 65 58.1793 65 49.7656V15.2344C65 6.82066 58.1793 0 49.7656 0Z" fill="#1D9BF0"/>
<path d="M50.6726 23.2098C50.7005 23.6128 50.7005 24.0157 50.7005 24.4225C50.7005 36.8123 41.2684 51.1017 24.0213 51.1017V51.094C18.9262 51.1014 13.9367 49.6422 9.64844 46.8906C10.3893 46.9798 11.1338 47.0242 11.8803 47.026C16.1032 47.0293 20.2045 45.6129 23.5254 43.0043C21.5688 42.9673 19.6727 42.3198 18.1021 41.1524C16.5315 39.9849 15.365 38.3558 14.7657 36.4929C16.1705 36.7638 17.6187 36.7085 18.9988 36.3314C14.6245 35.4476 11.4773 31.6042 11.4773 27.1405V27.0217C12.7814 27.748 14.2408 28.1505 15.7328 28.1953C11.6129 25.4416 10.3429 19.9606 12.8306 15.6751C15.1847 18.572 18.1218 20.9412 21.4511 22.6289C24.7805 24.3166 28.4277 25.2851 32.1557 25.4714C31.784 23.8713 31.8389 22.2018 32.3149 20.6296C32.7909 19.0575 33.6714 17.6379 34.8682 16.5128C38.6448 12.9627 44.5844 13.1447 48.1345 16.9193C50.2343 16.5047 52.248 15.7349 54.0889 14.643C53.3889 16.8141 51.9241 18.6569 49.967 19.8288C51.8257 19.6098 53.6409 19.1122 55.3516 18.3528C54.0932 20.2373 52.5087 21.8819 50.6726 23.2098Z" fill="white"/>
</g>
<defs>
<clipPath id="clip0_23_218">
<rect width="65" height="65" fill="white"/>
</clipPath>
</defs>
</svg>
