<svg width="30" height="30" viewBox="0 0 30 30" fill="none" xmlns="http://www.w3.org/2000/svg">
<path d="M0 1.25H5.955L6.63625 3.75H29.2337L24.6513 17.5H9.725L9.1 20H27.5V22.5H5.9L7.4575 16.2637L4.045 3.75H0V1.25ZM9.705 15H22.8487L25.7663 6.25H7.31875L9.705 15ZM5 26.25C5 25.587 5.26339 24.9511 5.73223 24.4822C6.20107 24.0134 6.83696 23.75 7.5 23.75C8.16304 23.75 8.79893 24.0134 9.26777 24.4822C9.73661 24.9511 10 25.587 10 26.25C10 26.913 9.73661 27.5489 9.26777 28.0178C8.79893 28.4866 8.16304 28.75 7.5 28.75C6.83696 28.75 6.20107 28.4866 5.73223 28.0178C5.26339 27.5489 5 26.913 5 26.25ZM22.5 26.25C22.5 25.587 22.7634 24.9511 23.2322 24.4822C23.7011 24.0134 24.337 23.75 25 23.75C25.663 23.75 26.2989 24.0134 26.7678 24.4822C27.2366 24.9511 27.5 25.587 27.5 26.25C27.5 26.913 27.2366 27.5489 26.7678 28.0178C26.2989 28.4866 25.663 28.75 25 28.75C24.337 28.75 23.7011 28.4866 23.2322 28.0178C22.7634 27.5489 22.5 26.913 22.5 26.25Z" fill="white"/>
</svg>
